<?xml version="1.0" standalone="no"?>
<!DOCTYPE svg PUBLIC "-//W3C//DTD SVG 20010904//EN"
 "http://www.w3.org/TR/2001/REC-SVG-20010904/DTD/svg10.dtd">
<svg version="1.0" xmlns="http://www.w3.org/2000/svg"
 width="4637.000000pt" height="4637.000000pt" viewBox="0 0 4637.000000 4637.000000"
 preserveAspectRatio="xMidYMid meet">
<metadata>
Created by potrace 1.11, written by Peter Selinger 2001-2013
</metadata>
<g transform="translate(0.000000,4637.000000) scale(0.100000,-0.100000)"
fill="#000000" stroke="none">
<path d="M19377 42683 c-4 -3 -7 -2175 -7 -4825 l0 -4818 1758 1 c2149 1 3104
11 3282 33 540 69 948 185 1341 382 414 207 720 446 972 758 269 335 444 748
488 1156 7 62 9 206 6 364 -4 272 -15 361 -67 561 -195 745 -766 1314 -1593
1585 -117 38 -316 91 -477 125 -85 17 -110 29 -95 44 6 5 111 63 235 129 324
172 430 235 609 359 455 317 728 685 835 1123 46 192 59 330 60 635 1 268 0
285 -26 405 -127 587 -493 1065 -1094 1428 -465 280 -1138 477 -1819 532 -224
18 -4392 40 -4408 23z m3558 -666 c520 -58 885 -156 1234 -331 235 -118 456
-298 597 -485 113 -152 220 -385 276 -606 16 -65 21 -124 25 -325 7 -305 -5
-443 -51 -610 -72 -260 -163 -439 -323 -632 -278 -335 -672 -550 -1173 -639
-160 -29 -536 -37 -1637 -38 l-893 -1 0 1846 0 1846 903 -5 c728 -4 929 -8
1042 -20z m40 -4277 c547 -21 926 -99 1333 -275 255 -111 465 -249 637 -420
137 -137 225 -260 315 -440 140 -280 197 -526 215 -920 40 -870 -434 -1471
-1390 -1764 -236 -73 -572 -131 -870 -151 -90 -6 -615 -14 -1192 -17 l-1033
-6 0 2002 0 2001 873 0 c479 -1 980 -5 1112 -10z"/>
<path d="M7364 38633 c-53 -81 -254 -398 -448 -703 -194 -305 -869 -1367
-1501 -2360 -2767 -4350 -2555 -4016 -2555 -4038 0 -11 46 -42 309 -209 107
-68 197 -120 201 -116 17 19 133 199 520 808 227 358 447 704 490 770 42 66
234 368 425 670 191 303 368 581 392 618 29 45 47 66 56 61 28 -17 992 -630
1222 -777 240 -153 945 -602 1165 -740 58 -37 119 -76 135 -87 17 -12 125 -81
240 -154 116 -73 588 -373 1050 -666 754 -479 963 -612 1450 -923 77 -49 525
-334 995 -632 470 -299 958 -608 1085 -689 126 -80 236 -146 245 -146 18 0 21
6 383 575 352 553 477 755 477 771 0 18 -13 26 -704 464 -336 213 -681 432
-766 487 -85 55 -407 260 -715 455 -636 403 -881 559 -1420 903 -209 133 -542
345 -740 470 -198 125 -538 341 -755 480 -535 341 -1061 676 -1765 1123 -743
472 -716 454 -710 469 7 20 308 500 578 923 680 1065 1221 1919 1241 1957 9
18 16 39 16 47 0 8 -28 35 -62 60 -67 47 -312 204 -390 250 l-48 28 -96 -149z"/>
<path d="M40265 36006 c-88 -36 -374 -148 -635 -249 -261 -102 -639 -250 -840
-330 -201 -80 -554 -219 -785 -310 -231 -91 -706 -278 -1055 -415 -874 -344
-910 -358 -1385 -545 -231 -91 -654 -257 -940 -370 -286 -113 -686 -270 -890
-350 -203 -80 -534 -210 -735 -290 -201 -79 -435 -171 -520 -205 -639 -250
-850 -334 -922 -366 l-57 -25 25 -68 c24 -64 196 -502 486 -1238 72 -181 157
-400 190 -485 32 -85 117 -301 188 -480 71 -179 401 -1016 734 -1860 791
-2011 823 -2090 840 -2090 10 0 542 213 549 219 9 9 -13 68 -293 776 -217 550
-500 1268 -783 1990 -102 259 -314 797 -471 1198 -157 400 -286 734 -286 742
0 19 22 30 241 119 267 108 2353 930 3562 1402 104 41 195 74 203 74 8 0 17
-8 21 -17 17 -51 198 -517 411 -1058 132 -335 362 -920 511 -1300 307 -780
301 -765 313 -765 42 0 558 219 558 237 0 8 -22 69 -50 136 -27 67 -110 277
-184 467 -132 339 -585 1492 -853 2169 -99 253 -133 349 -126 360 12 20 83 48
1603 647 1499 590 1568 616 1580 609 21 -13 50 -86 445 -1095 79 -201 304
-772 500 -1270 196 -498 480 -1220 632 -1605 151 -385 279 -707 284 -717 8
-16 14 -15 77 6 183 63 492 199 492 218 0 7 -72 198 -161 423 -88 226 -221
563 -294 750 -73 187 -226 576 -340 865 -114 289 -457 1160 -762 1935 -864
2194 -873 2218 -903 2222 -8 2 -87 -26 -175 -61z"/>
<path d="M13115 21118 c-52 -26 -256 -141 -415 -233 -123 -72 -1185 -678
-2230 -1273 -816 -465 -1594 -908 -2710 -1545 -558 -319 -1181 -674 -1385
-790 -574 -327 -996 -567 -1016 -580 -10 -6 -20 -9 -22 -7 -8 9 -267 461 -617
1075 -194 341 -407 715 -473 830 -236 411 -306 534 -467 818 -89 158 -167 290
-172 293 -9 6 -466 -250 -508 -284 l-24 -19 284 -499 c156 -275 332 -582 391
-684 58 -102 173 -302 254 -445 265 -468 1441 -2530 2283 -4005 809 -1417
1033 -1803 1050 -1814 5 -3 53 20 108 50 54 31 137 76 184 102 88 47 230 139
230 148 0 4 -560 988 -1321 2320 -186 326 -350 616 -364 645 l-27 52 23 18
c13 10 81 51 151 91 71 40 199 114 285 164 87 50 426 243 753 429 327 186 939
535 1360 775 421 241 929 531 1130 645 505 287 1077 613 2095 1195 479 273
1122 640 1430 815 308 175 568 323 577 330 16 10 -11 61 -258 496 -152 266
-321 565 -376 664 -100 179 -143 245 -156 245 -4 -1 -25 -10 -47 -22z"/>
<path d="M32115 20549 c-417 -36 -810 -163 -1178 -380 -171 -101 -216 -132
-367 -258 -408 -339 -782 -784 -1100 -1311 -451 -746 -613 -1571 -445 -2270
78 -322 237 -644 452 -910 283 -352 718 -664 1100 -789 242 -80 458 -107 773
-98 565 17 1093 165 1865 525 258 120 362 171 1050 512 369 182 726 357 795
387 311 137 613 244 873 307 258 64 314 70 617 71 l275 0 110 -32 c148 -43
291 -102 383 -159 353 -220 548 -494 634 -887 19 -87 22 -133 23 -317 0 -183
-4 -231 -23 -325 -107 -533 -354 -969 -788 -1397 -149 -146 -233 -216 -365
-304 -213 -142 -413 -240 -659 -321 -274 -90 -585 -131 -910 -119 -227 8 -399
34 -666 101 -120 30 -221 52 -225 48 -13 -15 -40 -112 -108 -398 -94 -394
-113 -487 -103 -497 15 -15 310 -85 472 -112 85 -14 216 -30 289 -36 201 -15
536 -13 681 5 211 26 490 96 681 170 656 256 1234 748 1758 1494 442 630 703
1264 783 1901 20 159 17 586 -5 730 -74 482 -255 876 -582 1267 -129 154 -352
353 -533 477 -169 115 -463 241 -654 280 -88 18 -346 36 -523 36 -408 0 -873
-103 -1435 -317 -80 -31 -296 -122 -480 -204 -319 -140 -404 -179 -830 -386
-766 -372 -1153 -559 -1200 -580 -318 -144 -678 -272 -940 -337 -494 -122
-836 -110 -1135 39 -135 67 -213 125 -331 246 -486 504 -509 1275 -59 2004
208 338 508 659 790 847 218 145 511 277 750 338 179 45 244 52 514 57 387 7
589 -16 957 -112 94 -25 178 -45 187 -45 8 0 18 7 21 17 18 47 166 800 166
845 0 31 -8 34 -274 98 -382 93 -754 127 -1081 99z"/>
<path d="M21615 16423 c-32 -71 -126 -270 -208 -443 -82 -173 -198 -418 -257
-545 -119 -256 -521 -1109 -980 -2080 -166 -352 -503 -1065 -748 -1585 -244
-520 -468 -994 -497 -1055 -29 -60 -178 -378 -332 -705 -154 -327 -399 -845
-543 -1150 -322 -680 -487 -1030 -908 -1928 -50 -106 -94 -201 -97 -212 -6
-20 -1 -20 398 -20 l403 0 174 368 c288 611 793 1677 1045 2207 131 275 250
529 266 565 l27 65 1844 3 c1014 2 1947 0 2073 -3 l231 -7 49 -112 c43 -99
438 -964 1165 -2553 l244 -533 735 0 c405 0 773 3 818 6 80 7 81 7 73 30 -11
27 -30 68 -572 1249 -428 932 -788 1713 -1263 2745 -164 355 -330 717 -370
805 -40 88 -96 210 -125 270 -29 61 -69 148 -90 195 -20 47 -65 144 -98 215
-33 72 -154 333 -267 580 -114 248 -269 585 -345 750 -558 1213 -1142 2483
-1333 2900 l-46 100 -203 3 -204 2 -59 -127z m-108 -2200 c24 -54 263 -573
530 -1153 266 -580 506 -1102 533 -1160 289 -624 620 -1351 620 -1360 0 -9
-451 -11 -1759 -8 -968 1 -1762 6 -1766 9 -3 4 98 226 226 495 127 269 340
721 474 1004 134 283 417 884 630 1335 213 451 390 827 393 835 12 33 54 100
64 100 5 0 30 -44 55 -97z"/>
</g>
</svg>
